<svg xmlns="http://www.w3.org/2000/svg" version="1.1" xmlns:xlink="http://www.w3.org/1999/xlink" width="200" height="200"><svg xmlns="http://www.w3.org/2000/svg" version="1.1" xmlns:xlink="http://www.w3.org/1999/xlink" viewBox="0 0 200 200"><rect width="200" height="200" fill="url('#gradient')"></rect><defs><linearGradient id="SvgjsLinearGradient1001" gradientTransform="rotate(360 0.5 0.5)"><stop offset="0%" stop-color="#3c93b9"></stop><stop offset="100%" stop-color="#10beb5"></stop></linearGradient></defs><g><g fill="#e8f3ed" transform="matrix(2.8105286839145105,0,0,2.8105286839145105,35.317987268939206,119.97318047041834)" stroke="#99e1de" stroke-width="0.9"><path d="M4.73-14.22L4.73 0L1.31 0L1.31-14.22L4.73-14.22ZM16.19 0L15.36-2.66L10.66-2.66L9.84 0L6.18 0L11.40-14.22L14.62-14.22L19.87 0L16.19 0ZM13.01-10.23L11.48-5.30L14.54-5.30L13.01-10.23ZM28.70 0L26.19-5.02L24.34-5.02L24.34 0L20.91 0L20.91-14.22L26.50-14.22Q29.03-14.22 30.46-13.10Q31.88-11.97 31.88-9.92L31.88-9.92Q31.88-8.44 31.28-7.46Q30.68-6.48 29.40-5.88L29.40-5.88L32.37-0.15L32.37 0L28.70 0ZM24.34-11.57L24.34-7.67L26.50-7.67Q27.48-7.67 27.97-8.18Q28.47-8.69 28.47-9.61Q28.47-10.53 27.97-11.05Q27.47-11.57 26.50-11.57L26.50-11.57L24.34-11.57ZM41.29-3.78L41.29-3.78Q41.29-4.53 40.76-4.95Q40.22-5.37 38.89-5.82Q37.55-6.27 36.70-6.69L36.70-6.69Q33.94-8.05 33.94-10.42L33.94-10.42Q33.94-11.60 34.62-12.50Q35.31-13.41 36.57-13.91Q37.83-14.41 39.40-14.41L39.40-14.41Q40.94-14.41 42.15-13.87Q43.37-13.32 44.04-12.31Q44.72-11.30 44.72-10L44.72-10L41.30-10Q41.30-10.87 40.77-11.35Q40.23-11.83 39.33-11.83L39.33-11.83Q38.41-11.83 37.88-11.42Q37.34-11.02 37.34-10.39L37.34-10.39Q37.34-9.84 37.93-9.40Q38.52-8.96 39.99-8.48Q41.46-8.01 42.41-7.46L42.41-7.46Q44.72-6.13 44.72-3.80L44.72-3.80Q44.72-1.93 43.31-0.87Q41.90 0.20 39.45 0.20L39.45 0.20Q37.72 0.20 36.32-0.42Q34.92-1.04 34.21-2.12Q33.51-3.20 33.51-4.61L33.51-4.61L36.94-4.61Q36.94-3.47 37.53-2.92Q38.13-2.38 39.45-2.38L39.45-2.38Q40.30-2.38 40.80-2.75Q41.29-3.12 41.29-3.78Z"></path></g></g></svg><style>@media (prefers-color-scheme: light) { :root { filter: none; } }
@media (prefers-color-scheme: dark) { :root { filter: none; } }
</style></svg>